%TF.GenerationSoftware,KiCad,Pcbnew,9.0.2*%
%TF.CreationDate,2025-06-28T02:05:05-07:00*%
%TF.ProjectId,Test,54657374-2e6b-4696-9361-645f70636258,rev?*%
%TF.SameCoordinates,Original*%
%TF.FileFunction,Legend,Top*%
%TF.FilePolarity,Positive*%
%FSLAX46Y46*%
G04 Gerber Fmt 4.6, Leading zero omitted, Abs format (unit mm)*
G04 Created by KiCad (PCBNEW 9.0.2) date 2025-06-28 02:05:05*
%MOMM*%
%LPD*%
G01*
G04 APERTURE LIST*
%ADD10C,0.150000*%
%ADD11C,0.101600*%
%ADD12C,0.120000*%
%ADD13C,0.127000*%
%ADD14C,0.100000*%
%ADD15C,0.504000*%
G04 APERTURE END LIST*
D10*
X95980476Y-119533200D02*
X96123333Y-119580819D01*
X96123333Y-119580819D02*
X96361428Y-119580819D01*
X96361428Y-119580819D02*
X96456666Y-119533200D01*
X96456666Y-119533200D02*
X96504285Y-119485580D01*
X96504285Y-119485580D02*
X96551904Y-119390342D01*
X96551904Y-119390342D02*
X96551904Y-119295104D01*
X96551904Y-119295104D02*
X96504285Y-119199866D01*
X96504285Y-119199866D02*
X96456666Y-119152247D01*
X96456666Y-119152247D02*
X96361428Y-119104628D01*
X96361428Y-119104628D02*
X96170952Y-119057009D01*
X96170952Y-119057009D02*
X96075714Y-119009390D01*
X96075714Y-119009390D02*
X96028095Y-118961771D01*
X96028095Y-118961771D02*
X95980476Y-118866533D01*
X95980476Y-118866533D02*
X95980476Y-118771295D01*
X95980476Y-118771295D02*
X96028095Y-118676057D01*
X96028095Y-118676057D02*
X96075714Y-118628438D01*
X96075714Y-118628438D02*
X96170952Y-118580819D01*
X96170952Y-118580819D02*
X96409047Y-118580819D01*
X96409047Y-118580819D02*
X96551904Y-118628438D01*
X96885238Y-118580819D02*
X97123333Y-119580819D01*
X97123333Y-119580819D02*
X97313809Y-118866533D01*
X97313809Y-118866533D02*
X97504285Y-119580819D01*
X97504285Y-119580819D02*
X97742381Y-118580819D01*
X98075714Y-118676057D02*
X98123333Y-118628438D01*
X98123333Y-118628438D02*
X98218571Y-118580819D01*
X98218571Y-118580819D02*
X98456666Y-118580819D01*
X98456666Y-118580819D02*
X98551904Y-118628438D01*
X98551904Y-118628438D02*
X98599523Y-118676057D01*
X98599523Y-118676057D02*
X98647142Y-118771295D01*
X98647142Y-118771295D02*
X98647142Y-118866533D01*
X98647142Y-118866533D02*
X98599523Y-119009390D01*
X98599523Y-119009390D02*
X98028095Y-119580819D01*
X98028095Y-119580819D02*
X98647142Y-119580819D01*
X98980476Y-118580819D02*
X99599523Y-118580819D01*
X99599523Y-118580819D02*
X99266190Y-118961771D01*
X99266190Y-118961771D02*
X99409047Y-118961771D01*
X99409047Y-118961771D02*
X99504285Y-119009390D01*
X99504285Y-119009390D02*
X99551904Y-119057009D01*
X99551904Y-119057009D02*
X99599523Y-119152247D01*
X99599523Y-119152247D02*
X99599523Y-119390342D01*
X99599523Y-119390342D02*
X99551904Y-119485580D01*
X99551904Y-119485580D02*
X99504285Y-119533200D01*
X99504285Y-119533200D02*
X99409047Y-119580819D01*
X99409047Y-119580819D02*
X99123333Y-119580819D01*
X99123333Y-119580819D02*
X99028095Y-119533200D01*
X99028095Y-119533200D02*
X98980476Y-119485580D01*
X115030476Y-157633200D02*
X115173333Y-157680819D01*
X115173333Y-157680819D02*
X115411428Y-157680819D01*
X115411428Y-157680819D02*
X115506666Y-157633200D01*
X115506666Y-157633200D02*
X115554285Y-157585580D01*
X115554285Y-157585580D02*
X115601904Y-157490342D01*
X115601904Y-157490342D02*
X115601904Y-157395104D01*
X115601904Y-157395104D02*
X115554285Y-157299866D01*
X115554285Y-157299866D02*
X115506666Y-157252247D01*
X115506666Y-157252247D02*
X115411428Y-157204628D01*
X115411428Y-157204628D02*
X115220952Y-157157009D01*
X115220952Y-157157009D02*
X115125714Y-157109390D01*
X115125714Y-157109390D02*
X115078095Y-157061771D01*
X115078095Y-157061771D02*
X115030476Y-156966533D01*
X115030476Y-156966533D02*
X115030476Y-156871295D01*
X115030476Y-156871295D02*
X115078095Y-156776057D01*
X115078095Y-156776057D02*
X115125714Y-156728438D01*
X115125714Y-156728438D02*
X115220952Y-156680819D01*
X115220952Y-156680819D02*
X115459047Y-156680819D01*
X115459047Y-156680819D02*
X115601904Y-156728438D01*
X115935238Y-156680819D02*
X116173333Y-157680819D01*
X116173333Y-157680819D02*
X116363809Y-156966533D01*
X116363809Y-156966533D02*
X116554285Y-157680819D01*
X116554285Y-157680819D02*
X116792381Y-156680819D01*
X117125714Y-156776057D02*
X117173333Y-156728438D01*
X117173333Y-156728438D02*
X117268571Y-156680819D01*
X117268571Y-156680819D02*
X117506666Y-156680819D01*
X117506666Y-156680819D02*
X117601904Y-156728438D01*
X117601904Y-156728438D02*
X117649523Y-156776057D01*
X117649523Y-156776057D02*
X117697142Y-156871295D01*
X117697142Y-156871295D02*
X117697142Y-156966533D01*
X117697142Y-156966533D02*
X117649523Y-157109390D01*
X117649523Y-157109390D02*
X117078095Y-157680819D01*
X117078095Y-157680819D02*
X117697142Y-157680819D01*
X118554285Y-157014152D02*
X118554285Y-157680819D01*
X118316190Y-156633200D02*
X118078095Y-157347485D01*
X118078095Y-157347485D02*
X118697142Y-157347485D01*
D11*
X136346520Y-119276190D02*
X135832473Y-119276190D01*
X135832473Y-119276190D02*
X135771997Y-119306428D01*
X135771997Y-119306428D02*
X135741759Y-119336666D01*
X135741759Y-119336666D02*
X135711520Y-119397142D01*
X135711520Y-119397142D02*
X135711520Y-119518095D01*
X135711520Y-119518095D02*
X135741759Y-119578571D01*
X135741759Y-119578571D02*
X135771997Y-119608809D01*
X135771997Y-119608809D02*
X135832473Y-119639047D01*
X135832473Y-119639047D02*
X136346520Y-119639047D01*
X135711520Y-120274047D02*
X135711520Y-119911190D01*
X135711520Y-120092618D02*
X136346520Y-120092618D01*
X136346520Y-120092618D02*
X136255806Y-120032142D01*
X136255806Y-120032142D02*
X136195330Y-119971666D01*
X136195330Y-119971666D02*
X136165092Y-119911190D01*
D10*
X76930476Y-119533200D02*
X77073333Y-119580819D01*
X77073333Y-119580819D02*
X77311428Y-119580819D01*
X77311428Y-119580819D02*
X77406666Y-119533200D01*
X77406666Y-119533200D02*
X77454285Y-119485580D01*
X77454285Y-119485580D02*
X77501904Y-119390342D01*
X77501904Y-119390342D02*
X77501904Y-119295104D01*
X77501904Y-119295104D02*
X77454285Y-119199866D01*
X77454285Y-119199866D02*
X77406666Y-119152247D01*
X77406666Y-119152247D02*
X77311428Y-119104628D01*
X77311428Y-119104628D02*
X77120952Y-119057009D01*
X77120952Y-119057009D02*
X77025714Y-119009390D01*
X77025714Y-119009390D02*
X76978095Y-118961771D01*
X76978095Y-118961771D02*
X76930476Y-118866533D01*
X76930476Y-118866533D02*
X76930476Y-118771295D01*
X76930476Y-118771295D02*
X76978095Y-118676057D01*
X76978095Y-118676057D02*
X77025714Y-118628438D01*
X77025714Y-118628438D02*
X77120952Y-118580819D01*
X77120952Y-118580819D02*
X77359047Y-118580819D01*
X77359047Y-118580819D02*
X77501904Y-118628438D01*
X77835238Y-118580819D02*
X78073333Y-119580819D01*
X78073333Y-119580819D02*
X78263809Y-118866533D01*
X78263809Y-118866533D02*
X78454285Y-119580819D01*
X78454285Y-119580819D02*
X78692381Y-118580819D01*
X79025714Y-118676057D02*
X79073333Y-118628438D01*
X79073333Y-118628438D02*
X79168571Y-118580819D01*
X79168571Y-118580819D02*
X79406666Y-118580819D01*
X79406666Y-118580819D02*
X79501904Y-118628438D01*
X79501904Y-118628438D02*
X79549523Y-118676057D01*
X79549523Y-118676057D02*
X79597142Y-118771295D01*
X79597142Y-118771295D02*
X79597142Y-118866533D01*
X79597142Y-118866533D02*
X79549523Y-119009390D01*
X79549523Y-119009390D02*
X78978095Y-119580819D01*
X78978095Y-119580819D02*
X79597142Y-119580819D01*
X79978095Y-118676057D02*
X80025714Y-118628438D01*
X80025714Y-118628438D02*
X80120952Y-118580819D01*
X80120952Y-118580819D02*
X80359047Y-118580819D01*
X80359047Y-118580819D02*
X80454285Y-118628438D01*
X80454285Y-118628438D02*
X80501904Y-118676057D01*
X80501904Y-118676057D02*
X80549523Y-118771295D01*
X80549523Y-118771295D02*
X80549523Y-118866533D01*
X80549523Y-118866533D02*
X80501904Y-119009390D01*
X80501904Y-119009390D02*
X79930476Y-119580819D01*
X79930476Y-119580819D02*
X80549523Y-119580819D01*
X57880476Y-119533200D02*
X58023333Y-119580819D01*
X58023333Y-119580819D02*
X58261428Y-119580819D01*
X58261428Y-119580819D02*
X58356666Y-119533200D01*
X58356666Y-119533200D02*
X58404285Y-119485580D01*
X58404285Y-119485580D02*
X58451904Y-119390342D01*
X58451904Y-119390342D02*
X58451904Y-119295104D01*
X58451904Y-119295104D02*
X58404285Y-119199866D01*
X58404285Y-119199866D02*
X58356666Y-119152247D01*
X58356666Y-119152247D02*
X58261428Y-119104628D01*
X58261428Y-119104628D02*
X58070952Y-119057009D01*
X58070952Y-119057009D02*
X57975714Y-119009390D01*
X57975714Y-119009390D02*
X57928095Y-118961771D01*
X57928095Y-118961771D02*
X57880476Y-118866533D01*
X57880476Y-118866533D02*
X57880476Y-118771295D01*
X57880476Y-118771295D02*
X57928095Y-118676057D01*
X57928095Y-118676057D02*
X57975714Y-118628438D01*
X57975714Y-118628438D02*
X58070952Y-118580819D01*
X58070952Y-118580819D02*
X58309047Y-118580819D01*
X58309047Y-118580819D02*
X58451904Y-118628438D01*
X58785238Y-118580819D02*
X59023333Y-119580819D01*
X59023333Y-119580819D02*
X59213809Y-118866533D01*
X59213809Y-118866533D02*
X59404285Y-119580819D01*
X59404285Y-119580819D02*
X59642381Y-118580819D01*
X59975714Y-118676057D02*
X60023333Y-118628438D01*
X60023333Y-118628438D02*
X60118571Y-118580819D01*
X60118571Y-118580819D02*
X60356666Y-118580819D01*
X60356666Y-118580819D02*
X60451904Y-118628438D01*
X60451904Y-118628438D02*
X60499523Y-118676057D01*
X60499523Y-118676057D02*
X60547142Y-118771295D01*
X60547142Y-118771295D02*
X60547142Y-118866533D01*
X60547142Y-118866533D02*
X60499523Y-119009390D01*
X60499523Y-119009390D02*
X59928095Y-119580819D01*
X59928095Y-119580819D02*
X60547142Y-119580819D01*
X61499523Y-119580819D02*
X60928095Y-119580819D01*
X61213809Y-119580819D02*
X61213809Y-118580819D01*
X61213809Y-118580819D02*
X61118571Y-118723676D01*
X61118571Y-118723676D02*
X61023333Y-118818914D01*
X61023333Y-118818914D02*
X60928095Y-118866533D01*
X38830476Y-119533200D02*
X38973333Y-119580819D01*
X38973333Y-119580819D02*
X39211428Y-119580819D01*
X39211428Y-119580819D02*
X39306666Y-119533200D01*
X39306666Y-119533200D02*
X39354285Y-119485580D01*
X39354285Y-119485580D02*
X39401904Y-119390342D01*
X39401904Y-119390342D02*
X39401904Y-119295104D01*
X39401904Y-119295104D02*
X39354285Y-119199866D01*
X39354285Y-119199866D02*
X39306666Y-119152247D01*
X39306666Y-119152247D02*
X39211428Y-119104628D01*
X39211428Y-119104628D02*
X39020952Y-119057009D01*
X39020952Y-119057009D02*
X38925714Y-119009390D01*
X38925714Y-119009390D02*
X38878095Y-118961771D01*
X38878095Y-118961771D02*
X38830476Y-118866533D01*
X38830476Y-118866533D02*
X38830476Y-118771295D01*
X38830476Y-118771295D02*
X38878095Y-118676057D01*
X38878095Y-118676057D02*
X38925714Y-118628438D01*
X38925714Y-118628438D02*
X39020952Y-118580819D01*
X39020952Y-118580819D02*
X39259047Y-118580819D01*
X39259047Y-118580819D02*
X39401904Y-118628438D01*
X39735238Y-118580819D02*
X39973333Y-119580819D01*
X39973333Y-119580819D02*
X40163809Y-118866533D01*
X40163809Y-118866533D02*
X40354285Y-119580819D01*
X40354285Y-119580819D02*
X40592381Y-118580819D01*
X41497142Y-119580819D02*
X40925714Y-119580819D01*
X41211428Y-119580819D02*
X41211428Y-118580819D01*
X41211428Y-118580819D02*
X41116190Y-118723676D01*
X41116190Y-118723676D02*
X41020952Y-118818914D01*
X41020952Y-118818914D02*
X40925714Y-118866533D01*
X41830476Y-118580819D02*
X42497142Y-118580819D01*
X42497142Y-118580819D02*
X42068571Y-119580819D01*
D12*
%TO.C,SW23*%
X90805000Y-120015000D02*
X104775000Y-120015000D01*
X90805000Y-133985000D02*
X90805000Y-120015000D01*
X104775000Y-120015000D02*
X104775000Y-133985000D01*
X104775000Y-133985000D02*
X90805000Y-133985000D01*
%TO.C,SW24*%
X109855000Y-158115000D02*
X123825000Y-158115000D01*
X109855000Y-172085000D02*
X109855000Y-158115000D01*
X123825000Y-158115000D02*
X123825000Y-172085000D01*
X123825000Y-172085000D02*
X109855000Y-172085000D01*
D13*
%TO.C,U1*%
X115491000Y-119370000D02*
X132636000Y-119370000D01*
X113586000Y-121275000D02*
X113586000Y-135245000D01*
X134541000Y-123765000D02*
X135451272Y-123768728D01*
X135951000Y-124268728D02*
X135951000Y-132264000D01*
X135451000Y-132764000D02*
X134541000Y-132764000D01*
D14*
X134541000Y-135245000D02*
X134541000Y-121275000D01*
D13*
X134541000Y-135245000D02*
X134541000Y-121275000D01*
X115491000Y-137150000D02*
X132636000Y-137150000D01*
X132636000Y-119370000D02*
G75*
G02*
X134541000Y-121275000I-1J-1905001D01*
G01*
X113586000Y-121275000D02*
G75*
G02*
X115491000Y-119370000I1905001J-1D01*
G01*
X135451272Y-123768728D02*
G75*
G02*
X135950999Y-124268728I-291J-500018D01*
G01*
X135951000Y-132264000D02*
G75*
G02*
X135451000Y-132764000I-500000J0D01*
G01*
X134541000Y-135245000D02*
G75*
G02*
X132636000Y-137150000I-1905000J0D01*
G01*
X115491000Y-137150000D02*
G75*
G02*
X113586000Y-135245000I0J1905000D01*
G01*
D15*
X134552000Y-119310000D02*
G75*
G02*
X134048000Y-119310000I-252000J0D01*
G01*
X134048000Y-119310000D02*
G75*
G02*
X134552000Y-119310000I252000J0D01*
G01*
X133672000Y-120453000D02*
G75*
G02*
X133168000Y-120453000I-252000J0D01*
G01*
X133168000Y-120453000D02*
G75*
G02*
X133672000Y-120453000I252000J0D01*
G01*
D12*
%TO.C,SW22*%
X71755000Y-120015000D02*
X85725000Y-120015000D01*
X71755000Y-133985000D02*
X71755000Y-120015000D01*
X85725000Y-120015000D02*
X85725000Y-133985000D01*
X85725000Y-133985000D02*
X71755000Y-133985000D01*
%TO.C,SW21*%
X52705000Y-120015000D02*
X66675000Y-120015000D01*
X52705000Y-133985000D02*
X52705000Y-120015000D01*
X66675000Y-120015000D02*
X66675000Y-133985000D01*
X66675000Y-133985000D02*
X52705000Y-133985000D01*
%TO.C,SW17*%
X33655000Y-120015000D02*
X47625000Y-120015000D01*
X33655000Y-133985000D02*
X33655000Y-120015000D01*
X47625000Y-120015000D02*
X47625000Y-133985000D01*
X47625000Y-133985000D02*
X33655000Y-133985000D01*
%TD*%
M02*
