%TF.GenerationSoftware,KiCad,Pcbnew,9.0.2*%
%TF.CreationDate,2025-06-28T02:05:04-07:00*%
%TF.ProjectId,Test,54657374-2e6b-4696-9361-645f70636258,rev?*%
%TF.SameCoordinates,Original*%
%TF.FileFunction,Copper,L1,Top*%
%TF.FilePolarity,Positive*%
%FSLAX46Y46*%
G04 Gerber Fmt 4.6, Leading zero omitted, Abs format (unit mm)*
G04 Created by KiCad (PCBNEW 9.0.2) date 2025-06-28 02:05:04*
%MOMM*%
%LPD*%
G01*
G04 APERTURE LIST*
G04 Aperture macros list*
%AMRoundRect*
0 Rectangle with rounded corners*
0 $1 Rounding radius*
0 $2 $3 $4 $5 $6 $7 $8 $9 X,Y pos of 4 corners*
0 Add a 4 corners polygon primitive as box body*
4,1,4,$2,$3,$4,$5,$6,$7,$8,$9,$2,$3,0*
0 Add four circle primitives for the rounded corners*
1,1,$1+$1,$2,$3*
1,1,$1+$1,$4,$5*
1,1,$1+$1,$6,$7*
1,1,$1+$1,$8,$9*
0 Add four rect primitives between the rounded corners*
20,1,$1+$1,$2,$3,$4,$5,0*
20,1,$1+$1,$4,$5,$6,$7,0*
20,1,$1+$1,$6,$7,$8,$9,0*
20,1,$1+$1,$8,$9,$2,$3,0*%
G04 Aperture macros list end*
%TA.AperFunction,ComponentPad*%
%ADD10C,2.200000*%
%TD*%
%TA.AperFunction,SMDPad,CuDef*%
%ADD11RoundRect,0.152400X0.609600X-1.063600X0.609600X1.063600X-0.609600X1.063600X-0.609600X-1.063600X0*%
%TD*%
%TA.AperFunction,ComponentPad*%
%ADD12C,1.524000*%
%TD*%
%TA.AperFunction,SMDPad,CuDef*%
%ADD13RoundRect,0.152400X-0.609600X1.063600X-0.609600X-1.063600X0.609600X-1.063600X0.609600X1.063600X0*%
%TD*%
%TA.AperFunction,Conductor*%
%ADD14C,0.200000*%
%TD*%
G04 APERTURE END LIST*
D10*
%TO.P,SW23,1,1*%
%TO.N,GND*%
X100330000Y-121920000D03*
%TO.P,SW23,2,2*%
%TO.N,Net-(U1-GPIO4{slash}MISO)*%
X93980000Y-124460000D03*
%TD*%
%TO.P,SW24,1,1*%
%TO.N,GND*%
X119380000Y-160020000D03*
%TO.P,SW24,2,2*%
%TO.N,Net-(U1-GPIO3{slash}MOSI)*%
X113030000Y-162560000D03*
%TD*%
D11*
%TO.P,U1,1,GPIO26/ADC0/A0*%
%TO.N,unconnected-(U1-GPIO26{slash}ADC0{slash}A0-Pad1)*%
X131620000Y-119805000D03*
D12*
X131620000Y-120640000D03*
D11*
%TO.P,U1,2,GPIO27/ADC1/A1*%
%TO.N,unconnected-(U1-GPIO27{slash}ADC1{slash}A1-Pad2)*%
X129080000Y-119805000D03*
D12*
X129080000Y-120640000D03*
D11*
%TO.P,U1,3,GPIO28/ADC2/A2*%
%TO.N,unconnected-(U1-GPIO28{slash}ADC2{slash}A2-Pad3)*%
X126540000Y-119805000D03*
D12*
X126540000Y-120640000D03*
D11*
%TO.P,U1,4,GPIO29/ADC3/A3*%
%TO.N,unconnected-(U1-GPIO29{slash}ADC3{slash}A3-Pad4)*%
X124000000Y-119805000D03*
D12*
X124000000Y-120640000D03*
D11*
%TO.P,U1,5,GPIO6/SDA*%
%TO.N,unconnected-(U1-GPIO6{slash}SDA-Pad5)*%
X121460000Y-119805000D03*
D12*
X121460000Y-120640000D03*
D11*
%TO.P,U1,6,GPIO7/SCL*%
%TO.N,unconnected-(U1-GPIO7{slash}SCL-Pad6)*%
X118920000Y-119805000D03*
D12*
X118920000Y-120640000D03*
D11*
%TO.P,U1,7,GPIO0/TX*%
%TO.N,Net-(U1-GPIO0{slash}TX)*%
X116380000Y-119805000D03*
D12*
X116380000Y-120640000D03*
%TO.P,U1,8,GPIO1/RX*%
%TO.N,Net-(U1-GPIO1{slash}RX)*%
X116380000Y-135880000D03*
D13*
X116380000Y-136715000D03*
D12*
%TO.P,U1,9,GPIO2/SCK*%
%TO.N,Net-(U1-GPIO2{slash}SCK)*%
X118920000Y-135880000D03*
D13*
X118920000Y-136715000D03*
D12*
%TO.P,U1,10,GPIO4/MISO*%
%TO.N,Net-(U1-GPIO4{slash}MISO)*%
X121460000Y-135880000D03*
D13*
X121460000Y-136715000D03*
D12*
%TO.P,U1,11,GPIO3/MOSI*%
%TO.N,Net-(U1-GPIO3{slash}MOSI)*%
X124000000Y-135880000D03*
D13*
X124000000Y-136715000D03*
D12*
%TO.P,U1,12,3V3*%
%TO.N,unconnected-(U1-3V3-Pad12)*%
X126540000Y-135880000D03*
D13*
X126540000Y-136715000D03*
D12*
%TO.P,U1,13,GND*%
%TO.N,GND*%
X129080000Y-135880000D03*
D13*
X129080000Y-136715000D03*
D12*
%TO.P,U1,14,VBUS*%
%TO.N,unconnected-(U1-VBUS-Pad14)*%
X131620000Y-135880000D03*
D13*
X131620000Y-136715000D03*
%TD*%
D10*
%TO.P,SW22,1,1*%
%TO.N,GND*%
X81280000Y-121920000D03*
%TO.P,SW22,2,2*%
%TO.N,Net-(U1-GPIO2{slash}SCK)*%
X74930000Y-124460000D03*
%TD*%
%TO.P,SW21,1,1*%
%TO.N,GND*%
X62230000Y-121920000D03*
%TO.P,SW21,2,2*%
%TO.N,Net-(U1-GPIO1{slash}RX)*%
X55880000Y-124460000D03*
%TD*%
%TO.P,SW17,1,1*%
%TO.N,GND*%
X43180000Y-121920000D03*
%TO.P,SW17,2,2*%
%TO.N,Net-(U1-GPIO0{slash}TX)*%
X36830000Y-124460000D03*
%TD*%
D14*
%TO.N,GND*%
X122937000Y-136715000D02*
X122937000Y-137970626D01*
X117952274Y-138633000D02*
X119887726Y-138633000D01*
X117650000Y-138330726D02*
X117952274Y-138633000D01*
X125738374Y-138232000D02*
X127341626Y-138232000D01*
X119887726Y-138633000D02*
X120190000Y-138330726D01*
X122924000Y-138136726D02*
X122924000Y-136715000D01*
X125063000Y-136715000D02*
X125477000Y-136715000D01*
X113431000Y-160020000D02*
X113431000Y-136715000D01*
X114916000Y-138136726D02*
X115412274Y-138633000D01*
X119380000Y-160020000D02*
X113431000Y-160020000D01*
X122427726Y-138633000D02*
X122924000Y-138136726D01*
X127603000Y-137970626D02*
X127603000Y-136715000D01*
X115412274Y-138633000D02*
X117347726Y-138633000D01*
X120190000Y-138330726D02*
X120492274Y-138633000D01*
X117347726Y-138633000D02*
X117650000Y-138330726D01*
X125477000Y-136715000D02*
X125477000Y-137970626D01*
X120492274Y-138633000D02*
X122427726Y-138633000D01*
X113431000Y-136715000D02*
X114916000Y-136715000D01*
X114916000Y-136715000D02*
X114916000Y-138136726D01*
X122924000Y-136715000D02*
X122937000Y-136715000D01*
X122937000Y-137970626D02*
X123198374Y-138232000D01*
X123198374Y-138232000D02*
X124801626Y-138232000D01*
X124801626Y-138232000D02*
X125063000Y-137970626D01*
X125063000Y-137970626D02*
X125063000Y-136715000D01*
X125477000Y-137970626D02*
X125738374Y-138232000D01*
X127341626Y-138232000D02*
X127603000Y-137970626D01*
X127603000Y-136715000D02*
X129080000Y-136715000D01*
%TO.N,Net-(U1-GPIO3{slash}MOSI)*%
X113030000Y-162560000D02*
X113030000Y-135890000D01*
X122523000Y-137970626D02*
X122523000Y-135880000D01*
X117443000Y-135880000D02*
X117857000Y-135880000D01*
X113040000Y-135880000D02*
X115317000Y-135880000D01*
X119983000Y-137970626D02*
X119983000Y-135880000D01*
X115317000Y-135880000D02*
X115317000Y-137970626D01*
X113030000Y-135890000D02*
X113040000Y-135880000D01*
X115578374Y-138232000D02*
X117181626Y-138232000D01*
X119721626Y-138232000D02*
X119983000Y-137970626D01*
X117443000Y-137970626D02*
X117443000Y-135880000D01*
X122261626Y-138232000D02*
X122523000Y-137970626D01*
X117181626Y-138232000D02*
X117443000Y-137970626D01*
X117857000Y-135880000D02*
X117857000Y-137970626D01*
X117857000Y-137970626D02*
X118118374Y-138232000D01*
X115317000Y-137970626D02*
X115578374Y-138232000D01*
X119983000Y-135880000D02*
X120397000Y-135880000D01*
X118118374Y-138232000D02*
X119721626Y-138232000D01*
X120397000Y-135880000D02*
X120397000Y-137970626D01*
X120397000Y-137970626D02*
X120658374Y-138232000D01*
X120658374Y-138232000D02*
X122261626Y-138232000D01*
X122523000Y-135880000D02*
X124000000Y-135880000D01*
%TO.N,Net-(U1-GPIO0{slash}TX)*%
X36830000Y-124460000D02*
X36830000Y-119805000D01*
X36830000Y-119805000D02*
X115545000Y-119805000D01*
X115545000Y-119805000D02*
X116380000Y-120640000D01*
%TO.N,Net-(U1-GPIO1{slash}RX)*%
X55880000Y-124460000D02*
X55880000Y-130342000D01*
X55880000Y-130342000D02*
X116380000Y-130342000D01*
X116380000Y-130342000D02*
X116380000Y-135880000D01*
%TO.N,Net-(U1-GPIO2{slash}SCK)*%
X74930000Y-124460000D02*
X74930000Y-129941000D01*
X74930000Y-129941000D02*
X118920000Y-129941000D01*
X118920000Y-129941000D02*
X118920000Y-135880000D01*
%TO.N,GND*%
X100330000Y-121920000D02*
X128270000Y-121920000D01*
X129080000Y-122730000D02*
X129080000Y-135880000D01*
X128270000Y-121920000D02*
X129080000Y-122730000D01*
X100330000Y-121920000D02*
X81280000Y-121920000D01*
X43180000Y-121920000D02*
X62230000Y-121920000D01*
X62230000Y-121920000D02*
X81280000Y-121920000D01*
%TO.N,Net-(U1-GPIO4{slash}MISO)*%
X93980000Y-124460000D02*
X93980000Y-129540000D01*
X93980000Y-129540000D02*
X121460000Y-129540000D01*
X121460000Y-129540000D02*
X121460000Y-135880000D01*
%TD*%
M02*
