M48
; DRILL file {KiCad 9.0.2} date 2025-06-28T02:05:03-0700
; FORMAT={-:-/ absolute / metric / decimal}
; #@! TF.CreationDate,2025-06-28T02:05:03-07:00
; #@! TF.GenerationSoftware,Kicad,Pcbnew,9.0.2
; #@! TF.FileFunction,Plated,1,2,PTH
FMAT,2
METRIC
; #@! TA.AperFunction,Plated,PTH,ComponentDrill
T1C0.889
; #@! TA.AperFunction,Plated,PTH,ComponentDrill
T2C1.500
%
G90
G05
T1
X116.38Y-120.64
X116.38Y-135.88
X118.92Y-120.64
X118.92Y-135.88
X121.46Y-120.64
X121.46Y-135.88
X124.0Y-120.64
X124.0Y-135.88
X126.54Y-120.64
X126.54Y-135.88
X129.08Y-120.64
X129.08Y-135.88
X131.62Y-120.64
X131.62Y-135.88
T2
X36.83Y-124.46
X43.18Y-121.92
X55.88Y-124.46
X62.23Y-121.92
X74.93Y-124.46
X81.28Y-121.92
X93.98Y-124.46
X100.33Y-121.92
X113.03Y-162.56
X119.38Y-160.02
M30
