%TF.GenerationSoftware,KiCad,Pcbnew,9.0.2*%
%TF.CreationDate,2025-06-28T02:05:05-07:00*%
%TF.ProjectId,Test,54657374-2e6b-4696-9361-645f70636258,rev?*%
%TF.SameCoordinates,Original*%
%TF.FileFunction,Soldermask,Top*%
%TF.FilePolarity,Negative*%
%FSLAX46Y46*%
G04 Gerber Fmt 4.6, Leading zero omitted, Abs format (unit mm)*
G04 Created by KiCad (PCBNEW 9.0.2) date 2025-06-28 02:05:05*
%MOMM*%
%LPD*%
G01*
G04 APERTURE LIST*
G04 Aperture macros list*
%AMRoundRect*
0 Rectangle with rounded corners*
0 $1 Rounding radius*
0 $2 $3 $4 $5 $6 $7 $8 $9 X,Y pos of 4 corners*
0 Add a 4 corners polygon primitive as box body*
4,1,4,$2,$3,$4,$5,$6,$7,$8,$9,$2,$3,0*
0 Add four circle primitives for the rounded corners*
1,1,$1+$1,$2,$3*
1,1,$1+$1,$4,$5*
1,1,$1+$1,$6,$7*
1,1,$1+$1,$8,$9*
0 Add four rect primitives between the rounded corners*
20,1,$1+$1,$2,$3,$4,$5,0*
20,1,$1+$1,$4,$5,$6,$7,0*
20,1,$1+$1,$6,$7,$8,$9,0*
20,1,$1+$1,$8,$9,$2,$3,0*%
G04 Aperture macros list end*
%ADD10C,1.700000*%
%ADD11C,4.000000*%
%ADD12C,2.200000*%
%ADD13RoundRect,0.152400X0.609600X-1.063600X0.609600X1.063600X-0.609600X1.063600X-0.609600X-1.063600X0*%
%ADD14C,1.524000*%
%ADD15RoundRect,0.152400X-0.609600X1.063600X-0.609600X-1.063600X0.609600X-1.063600X0.609600X1.063600X0*%
G04 APERTURE END LIST*
D10*
%TO.C,SW23*%
X92710000Y-127000000D03*
D11*
X97790000Y-127000000D03*
D10*
X102870000Y-127000000D03*
D12*
X100330000Y-121920000D03*
X93980000Y-124460000D03*
%TD*%
D10*
%TO.C,SW24*%
X111760000Y-165100000D03*
D11*
X116840000Y-165100000D03*
D10*
X121920000Y-165100000D03*
D12*
X119380000Y-160020000D03*
X113030000Y-162560000D03*
%TD*%
D13*
%TO.C,U1*%
X131620000Y-119805000D03*
D14*
X131620000Y-120640000D03*
D13*
X129080000Y-119805000D03*
D14*
X129080000Y-120640000D03*
D13*
X126540000Y-119805000D03*
D14*
X126540000Y-120640000D03*
D13*
X124000000Y-119805000D03*
D14*
X124000000Y-120640000D03*
D13*
X121460000Y-119805000D03*
D14*
X121460000Y-120640000D03*
D13*
X118920000Y-119805000D03*
D14*
X118920000Y-120640000D03*
D13*
X116380000Y-119805000D03*
D14*
X116380000Y-120640000D03*
X116380000Y-135880000D03*
D15*
X116380000Y-136715000D03*
D14*
X118920000Y-135880000D03*
D15*
X118920000Y-136715000D03*
D14*
X121460000Y-135880000D03*
D15*
X121460000Y-136715000D03*
D14*
X124000000Y-135880000D03*
D15*
X124000000Y-136715000D03*
D14*
X126540000Y-135880000D03*
D15*
X126540000Y-136715000D03*
D14*
X129080000Y-135880000D03*
D15*
X129080000Y-136715000D03*
D14*
X131620000Y-135880000D03*
D15*
X131620000Y-136715000D03*
%TD*%
D10*
%TO.C,SW22*%
X73660000Y-127000000D03*
D11*
X78740000Y-127000000D03*
D10*
X83820000Y-127000000D03*
D12*
X81280000Y-121920000D03*
X74930000Y-124460000D03*
%TD*%
D10*
%TO.C,SW21*%
X54610000Y-127000000D03*
D11*
X59690000Y-127000000D03*
D10*
X64770000Y-127000000D03*
D12*
X62230000Y-121920000D03*
X55880000Y-124460000D03*
%TD*%
D10*
%TO.C,SW17*%
X35560000Y-127000000D03*
D11*
X40640000Y-127000000D03*
D10*
X45720000Y-127000000D03*
D12*
X43180000Y-121920000D03*
X36830000Y-124460000D03*
%TD*%
M02*
